<svg width="508" height="571" viewBox="0 0 508 571" fill="none" xmlns="http://www.w3.org/2000/svg"><g filter="url(#filter0_d_251_208)"><path fill-rule="evenodd" clip-rule="evenodd" d="M277.024 42.614c70.593 14.24 79.603 104.552 122.034 159.843 30.805 40.142 62.101 60.168 89.31 115.56 22.737 71.536 30.043 121.663-25.281 174.921-55.272 53.208-107.868 37.89-186.063 28.533-62.005-7.42-129.928 3.183-176.157-36.644-47.7-41.093-57.89-105.778-60.003-166.81-2.204-63.671 5.655-128.664 48.062-178.118 46.816-54.596 115.459-111.938 188.098-97.285z" fill="url(#paint0_linear_251_208)"/></g><defs><linearGradient id="paint0_linear_251_208" x1="138.233" y1="80.658" x2="443.747" y2="499.152" gradientUnits="userSpaceOnUse"><stop stop-color="#4733FF"/><stop offset="1" stop-color="#FEDE85"/></linearGradient><filter id="filter0_d_251_208" x=".529" y=".292" width="544.869" height="570.649" filterUnits="userSpaceOnUse" color-interpolation-filters="sRGB"><feFlood flood-opacity="0" result="BackgroundImageFix"/><feColorMatrix in="SourceAlpha" values="0 0 0 0 0 0 0 0 0 0 0 0 0 0 0 0 0 0 127 0" result="hardAlpha"/><feOffset/><feGaussianBlur stdDeviation="20"/><feComposite in2="hardAlpha" operator="out"/><feColorMatrix values="0 0 0 0 1 0 0 0 0 1 0 0 0 0 1 0 0 0 0.25 0"/><feBlend in2="BackgroundImageFix" result="effect1_dropShadow_251_208"/><feBlend in="SourceGraphic" in2="effect1_dropShadow_251_208" result="shape"/></filter></defs></svg>