<svg width="629" height="658" viewBox="0 0 629 658" fill="none" xmlns="http://www.w3.org/2000/svg"><g filter="url(#filter0_d_94_5)"><path fill-rule="evenodd" clip-rule="evenodd" d="M353.002 46.721c82.924 24.089 84.168 128.52 129.078 196.523C514.685 292.615 550 319 576.696 385.441 596.338 469.88 599.785 528.098 528 583c-71.717 54.85-133.004 31.51-225.534 12.176-73.372-15.332-155.724-10.672-206.808-61.381-52.71-52.323-58.071-127.532-54.157-197.668 4.083-73.167 20.342-146.741 76.278-198.71 61.752-57.371 149.896-115.483 235.223-90.696z" fill="url(#paint0_linear_94_5)"/></g><defs><linearGradient id="paint0_linear_94_5" x1="183" y1="75" x2="482.572" y2="600.327" gradientUnits="userSpaceOnUse"><stop stop-color="#4733FF"/><stop offset="1" stop-color="#FEDE85"/></linearGradient><filter id="filter0_d_94_5" x=".49" y=".846" width="628.37" height="656.215" filterUnits="userSpaceOnUse" color-interpolation-filters="sRGB"><feFlood flood-opacity="0" result="BackgroundImageFix"/><feColorMatrix in="SourceAlpha" values="0 0 0 0 0 0 0 0 0 0 0 0 0 0 0 0 0 0 127 0" result="hardAlpha"/><feOffset/><feGaussianBlur stdDeviation="20"/><feComposite in2="hardAlpha" operator="out"/><feColorMatrix values="0 0 0 0 1 0 0 0 0 1 0 0 0 0 1 0 0 0 0.25 0"/><feBlend in2="BackgroundImageFix" result="effect1_dropShadow_94_5"/><feBlend in="SourceGraphic" in2="effect1_dropShadow_94_5" result="shape"/></filter></defs></svg>