<svg width="298" height="290" viewBox="0 0 298 290" fill="none" xmlns="http://www.w3.org/2000/svg"><g filter="url(#filter0_d_549_1490)"><path fill-rule="evenodd" clip-rule="evenodd" d="M164.421 29.67c36.906 10.121 37.8 52.833 57.967 80.79 14.642 20.297 30.411 31.202 42.484 58.461 8.999 34.596 10.72 58.415-20.981 80.633-31.671 22.197-58.965 12.452-100.121 4.242-32.635-6.509-69.193-4.873-92.046-25.777-23.58-21.57-26.206-52.344-24.697-81.014 1.575-29.908 8.555-59.943 33.227-81.013C87.49 42.73 126.447 19.254 164.42 29.669z" fill="url(#paint0_linear_549_1490)"/></g><defs><linearGradient id="paint0_linear_549_1490" x1="89.015" y1="40.679" x2="206.024" y2="265.72" gradientUnits="userSpaceOnUse"><stop stop-color="#4733FF"/><stop offset="1" stop-color="#FEDE85"/></linearGradient><filter id="filter0_d_549_1490" x=".016" y=".462" width="297.199" height="289.373" filterUnits="userSpaceOnUse" color-interpolation-filters="sRGB"><feFlood flood-opacity="0" result="BackgroundImageFix"/><feColorMatrix in="SourceAlpha" values="0 0 0 0 0 0 0 0 0 0 0 0 0 0 0 0 0 0 127 0" result="hardAlpha"/><feOffset/><feGaussianBlur stdDeviation="13.333"/><feComposite in2="hardAlpha" operator="out"/><feColorMatrix values="0 0 0 0 1 0 0 0 0 1 0 0 0 0 1 0 0 0 0.25 0"/><feBlend in2="BackgroundImageFix" result="effect1_dropShadow_549_1490"/><feBlend in="SourceGraphic" in2="effect1_dropShadow_549_1490" result="shape"/></filter></defs></svg>