<svg width="447" height="435" viewBox="0 0 447 435" fill="none" xmlns="http://www.w3.org/2000/svg"><g filter="url(#filter0_d_280_427)"><path fill-rule="evenodd" clip-rule="evenodd" d="M247.132 44.003c55.359 15.183 56.7 79.25 86.95 121.185 21.962 30.446 45.617 46.804 63.726 87.692 13.499 51.894 16.081 87.623-31.471 120.95-47.506 33.295-88.448 18.677-150.182 6.364-48.952-9.765-103.789-7.31-138.068-38.667-35.37-32.354-39.31-78.516-37.046-121.52 2.362-44.863 12.832-89.916 49.84-121.52 40.855-34.892 99.289-70.107 156.251-54.484z" fill="url(#paint0_linear_280_427)"/></g><defs><linearGradient id="paint0_linear_280_427" x1="134.023" y1="60.517" x2="309.536" y2="398.079" gradientUnits="userSpaceOnUse"><stop stop-color="#4733FF"/><stop offset="1" stop-color="#FEDE85"/></linearGradient><filter id="filter0_d_280_427" x=".524" y=".191" width="445.797" height="434.06" filterUnits="userSpaceOnUse" color-interpolation-filters="sRGB"><feFlood flood-opacity="0" result="BackgroundImageFix"/><feColorMatrix in="SourceAlpha" values="0 0 0 0 0 0 0 0 0 0 0 0 0 0 0 0 0 0 127 0" result="hardAlpha"/><feOffset/><feGaussianBlur stdDeviation="20"/><feComposite in2="hardAlpha" operator="out"/><feColorMatrix values="0 0 0 0 1 0 0 0 0 1 0 0 0 0 1 0 0 0 0.25 0"/><feBlend in2="BackgroundImageFix" result="effect1_dropShadow_280_427"/><feBlend in="SourceGraphic" in2="effect1_dropShadow_280_427" result="shape"/></filter></defs></svg>