<svg width="567" height="140" viewBox="0 0 567 140" fill="none" xmlns="http://www.w3.org/2000/svg"><path d="M56 .2v-1h-.677l-.251.628L56 .2zm34.8 0l.929-.37-.251-.63H90.8v1zM146.6 140v1h1.476l-.547-1.371-.929.371zm-36.2 0l-.932.362.248.638h.684v-1zm-11.2-28.8l.932-.362-.248-.638H99.2v1zm-51.6 0v-1h-.684l-.248.638.932.362zM36.4 140v1h.684l.248-.638L36.4 140zM0 140l-.928-.372-.55 1.372H0v-1zm90.4-56v1h1.425l-.485-1.34-.94.34zm-17-47l.94-.34-.934-2.585-.945 2.581.939.344zM56.2 84l-.94-.344L54.77 85h1.43v-1zM56 1.2h34.8v-2H56v2zM89.871.57l55.8 139.801 1.858-.742-55.8-139.8-1.858.742zM146.6 139h-36.2v2h36.2v-2zm-35.268.638l-11.2-28.8-1.864.724 11.2 28.8 1.864-.724zM99.2 110.2H47.6v2h51.6v-2zm-52.532.638l-11.2 28.8 1.864.724 11.2-28.8-1.864-.724zM36.4 139H0v2h36.4v-2zM.928 140.372l56-139.8-1.856-.744-56 139.8 1.856.744zM91.34 83.66l-17-47-1.88.68 17 47 1.88-.68zM72.46 36.656l-17.2 47 1.88.688 17.2-47-1.88-.688zM56.2 85h34.2v-2H56.2v2zM160.641.2v-1h-1v1h1zm35.4 0h1v-1h-1v1zm0 58h-1v2.768l1.769-2.129-.769-.639zm48.2-58v-1h-.47l-.299.36.769.64zm42 0l.768.64 1.365-1.64h-2.133v1zm-56.6 68l-.769-.64-.535.643.538.64.766-.643zm60.4 71.8v1h2.148l-1.383-1.644-.765.644zm-42 0l-.766.644.3.356h.466v-1zm-52-61.8l.765-.644-1.765-2.098V78.2h1zm0 61.8v1h1v-1h-1zm-35.4 0h-1v1h1v-1zm0-138.8h35.4v-2h-35.4v2zm34.4-1v58h2V.2h-2zm1.769 58.64l48.2-58-1.538-1.28-48.2 58 1.538 1.28zM244.241 1.2h42v-2h-42v2zm41.231-1.64l-56.6 68 1.537 1.28 56.6-68-1.537-1.28zm-56.597 69.284l60.4 71.8 1.531-1.288-60.4-71.8-1.531 1.288zM290.041 139h-42v2h42v-2zm-41.235.356l-52-61.8-1.531 1.288 52 61.8 1.531-1.288zM195.041 78.2V140h2V78.2h-2zm1 60.8h-35.4v2h35.4v-2zm-34.4 1V.2h-2V140h2zM304 .2v-1h-1v1h1zm101.2 12.4l-.668.744.005.005.663-.749zm7.2 62.2l-.851-.526.851.526zm-19.2 16.4l-.399-.917-.973.424.481.946.891-.453zM418 140v1h1.63l-.739-1.453L418 140zm-36.4 0l-.892.452.278.548h.614v-1zm-22.2-43.8l.892-.452-.278-.548h-.614v1zm-20 0v-1h-1v1h1zm0 43.8v1h1v-1h-1zm-35.4 0h-1v1h1v-1zm73-77.6l.568.823.009-.006.01-.007-.587-.81zm0-28.4l-.581.814.016.011.017.011L377 34zm-37.6-4v-1h-1v1h1zm0 36.4h-1v1h1v-1zM304 1.2h62.8v-2H304v2zm62.8 0c16.235 0 28.768 4.09 37.732 12.144l1.336-1.488C396.432 3.377 383.365-.8 366.8-.8v2zm37.737 12.149C413.606 21.38 418.2 32.945 418.2 48.2h2c0-15.679-4.739-27.848-14.337-36.349l-1.326 1.498zM418.2 48.2c0 10.253-2.233 18.929-6.651 26.074l1.702 1.052C417.9 67.805 420.2 58.747 420.2 48.2h-2zm-6.651 26.074c-4.421 7.152-10.659 12.486-18.748 16.01l.798 1.833c8.445-3.678 15.006-9.276 19.652-16.791l-1.702-1.052zm-19.24 17.379l24.8 48.8 1.782-.906-24.8-48.8-1.782.906zM418 139h-36.4v2H418v-2zm-35.508.548l-22.2-43.8-1.784.904 22.2 43.8 1.784-.904zM359.4 95.2h-20v2h20v-2zm-21 1V140h2V96.2h-2zm1 42.8H304v2h35.4v-2zm-34.4 1V.2h-2V140h2zm55.6-72.6c7.173 0 12.869-1.35 16.968-4.177l-1.136-1.646c-3.635 2.507-8.872 3.823-15.832 3.823v2zm16.987-4.19c4.22-3.056 6.213-8.16 6.213-15.01h-2c0 6.482-1.873 10.846-5.387 13.39l1.174 1.62zM383.8 48.2c0-7.092-1.981-12.238-6.252-15.037l-1.096 1.674c3.462 2.268 5.348 6.588 5.348 13.363h2zm-6.219-15.014C373.607 30.347 367.898 29 360.6 29v2c7.102 0 12.327 1.32 15.819 3.814l1.162-1.628zM360.6 29h-21.2v2h21.2v-2zm-22.2 1v36.4h2V30h-2zm1 37.4h21.2v-2h-21.2v2zM476.312.2v-1h-.676l-.252.628.928.372zm34.8 0l.929-.37-.251-.63h-.678v1zm55.8 139.8v1h1.476l-.547-1.371-.929.371zm-36.199 0l-.932.362.247.638h.685v-1zm-11.2-28.8l.932-.362-.248-.638h-.684v1zm-51.6 0v-1h-.685l-.248.638.933.362zM456.712 140v1h.685l.248-.638-.933-.362zm-36.4 0l-.928-.372-.549 1.372h1.477v-1zm90.401-56v1h1.425l-.485-1.34-.94.34zm-17.001-47l.941-.34-.935-2.585-.945 2.581.939.344zm-17.199 47l-.94-.344-.491 1.344h1.431v-1zm-.201-82.8h34.8v-2h-34.8v2zm33.872-.63l55.8 139.801 1.857-.742-55.8-139.8-1.857.742zM566.912 139h-36.199v2h36.199v-2zm-35.267.638l-11.2-28.8-1.864.724 11.2 28.8 1.864-.724zM519.513 110.2h-51.6v2h51.6v-2zm-52.533.638l-11.2 28.8 1.865.724 11.2-28.8-1.865-.724zM456.712 139h-36.4v2h36.4v-2zm-35.471 1.372l56-139.8-1.857-.744-56 139.8 1.857.744zm90.412-56.712l-17-47-1.881.68 17 47 1.881-.68zm-18.88-47.004l-17.2 47 1.879.688 17.2-47-1.879-.688zM476.513 85h34.2v-2h-34.2v2z" fill="url(#paint0_linear_21_13)"/><defs><linearGradient id="paint0_linear_21_13" x1="179.171" y1="-3" x2="182.326" y2="100.078" gradientUnits="userSpaceOnUse"><stop stop-color="#F4F6F8"/><stop offset="1" stop-color="#F4F6F8" stop-opacity="0"/></linearGradient></defs></svg>