<svg width="736" height="605" viewBox="0 0 736 605" fill="none" xmlns="http://www.w3.org/2000/svg"><g filter="url(#filter0_d_100_24)"><path fill-rule="evenodd" clip-rule="evenodd" d="M390.527 40.024c86.203-1.403 154.554 57.95 211.834 114.471 53.211 52.506 88.252 115.648 92.467 185.801 4.473 74.446-.943 161.694-68.896 206.475-65.244 42.995-153.859-3.187-235.405-5.943-75.554-2.554-154.61 26.856-217.935-9.381-74.02-42.358-135.386-113.674-132.494-191.151C42.946 264.007 101.75 207.835 164 154.495c61.104-52.358 141.118-113.08 226.527-114.47z" fill="url(#paint0_linear_100_24)"/></g><defs><linearGradient id="paint0_linear_100_24" x1="215" y1="115" x2="633" y2="540" gradientUnits="userSpaceOnUse"><stop stop-color="#CEC8FF"/><stop offset="1" stop-color="#EF3CFF"/></linearGradient><filter id="filter0_d_100_24" x="0" y="0" width="736" height="605" filterUnits="userSpaceOnUse" color-interpolation-filters="sRGB"><feFlood flood-opacity="0" result="BackgroundImageFix"/><feColorMatrix in="SourceAlpha" values="0 0 0 0 0 0 0 0 0 0 0 0 0 0 0 0 0 0 127 0" result="hardAlpha"/><feOffset/><feGaussianBlur stdDeviation="20"/><feComposite in2="hardAlpha" operator="out"/><feColorMatrix values="0 0 0 0 1 0 0 0 0 1 0 0 0 0 1 0 0 0 0.25 0"/><feBlend in2="BackgroundImageFix" result="effect1_dropShadow_100_24"/><feBlend in="SourceGraphic" in2="effect1_dropShadow_100_24" result="shape"/></filter></defs></svg>