<svg width="561" height="437" viewBox="0 0 561 437" fill="none" xmlns="http://www.w3.org/2000/svg"><g filter="url(#filter0_d_692_135)"><path fill-rule="evenodd" clip-rule="evenodd" d="M277.666 33.602c70.813-4.83 148.814-.096 199.228 33.158 50.46 33.285 48.903 84.692 50.877 131.817 2.057 49.106 6.956 101.022-39.518 139.333-50.661 41.762-130.191 73.015-210.587 66.842-76.033-5.838-119.408-56.045-166.795-95.817-39.58-33.219-79.787-68.063-78.855-110.358.921-41.797 39.311-77.407 83.65-107.185 44.759-30.06 98.56-53.465 162-57.79z" fill="url(#paint0_linear_692_135)"/></g><defs><linearGradient id="paint0_linear_692_135" x1="485.239" y1="75.266" x2="140.149" y2="345.354" gradientUnits="userSpaceOnUse"><stop offset=".031" stop-color="#FFA53C"/><stop offset="1" stop-color="#C4FFBF"/></linearGradient><filter id="filter0_d_692_135" x=".742" y=".742" width="559.516" height="436.047" filterUnits="userSpaceOnUse" color-interpolation-filters="sRGB"><feFlood flood-opacity="0" result="BackgroundImageFix"/><feColorMatrix in="SourceAlpha" values="0 0 0 0 0 0 0 0 0 0 0 0 0 0 0 0 0 0 127 0" result="hardAlpha"/><feOffset/><feGaussianBlur stdDeviation="15.629"/><feComposite in2="hardAlpha" operator="out"/><feColorMatrix values="0 0 0 0 1 0 0 0 0 1 0 0 0 0 1 0 0 0 0.25 0"/><feBlend in2="BackgroundImageFix" result="effect1_dropShadow_692_135"/><feBlend in="SourceGraphic" in2="effect1_dropShadow_692_135" result="shape"/></filter></defs></svg>