<svg width="375" height="373" viewBox="0 0 375 373" fill="none" xmlns="http://www.w3.org/2000/svg"><path fill-rule="evenodd" clip-rule="evenodd" d="M170.006.135c38.965-1.862 74.864 15.801 108.468 35.612 36.971 21.795 82.285 42.234 93.741 83.595 11.4 41.156-21.995 79.436-37.568 119.201-14.414 36.808-19.199 79.527-49.973 104.336-31.425 25.334-74.73 34.247-114.668 28.393-37.078-5.434-63.324-35.374-92.597-58.772-27.683-22.128-61.69-40.059-73.047-73.631-11.41-33.727 1.901-69.592 13.174-103.365 11.182-33.5 24.871-66.292 51.28-89.739C97.18 20.583 132.122 1.945 170.007.135z" fill="url(#paint0_linear_605_140)"/><defs><linearGradient id="paint0_linear_605_140" x1="90.644" y1="298.777" x2="274.623" y2="45.926" gradientUnits="userSpaceOnUse"><stop stop-color="#9E7CF4"/><stop offset="1" stop-color="#FE8B8D"/></linearGradient></defs></svg>