<svg width="366" height="394" viewBox="0 0 366 394" fill="none" xmlns="http://www.w3.org/2000/svg"><g filter="url(#filter0_d_618_159)"><path fill-rule="evenodd" clip-rule="evenodd" d="M150.157 10.14c43.299-2.453 78.858 27.85 112.038 55.777 37.66 31.7 77.699 63.765 87.333 112.038 11.586 58.052 10.225 125.88-31.462 167.909-41.762 42.106-109.378 42.646-167.909 33.103-49.596-8.086-92.483-38.689-120.833-80.179C5.482 263.895 8.842 220.03 12.806 177.955c3.47-36.833 13.891-71.398 37.323-100.028 26.52-32.402 58.224-65.42 100.028-67.787z" fill="url(#paint0_linear_618_159)"/></g><defs><linearGradient id="paint0_linear_618_159" x1="182.892" y1="10" x2="182.892" y2="384" gradientUnits="userSpaceOnUse"><stop stop-color="#C43DBB"/><stop offset="1" stop-color="#5BAAEA"/></linearGradient><filter id="filter0_d_618_159" x="0" y="0" width="365.785" height="394" filterUnits="userSpaceOnUse" color-interpolation-filters="sRGB"><feFlood flood-opacity="0" result="BackgroundImageFix"/><feColorMatrix in="SourceAlpha" values="0 0 0 0 0 0 0 0 0 0 0 0 0 0 0 0 0 0 127 0" result="hardAlpha"/><feOffset/><feGaussianBlur stdDeviation="5"/><feComposite in2="hardAlpha" operator="out"/><feColorMatrix values="0 0 0 0 0.956863 0 0 0 0 0.964706 0 0 0 0 0.972549 0 0 0 1 0"/><feBlend in2="BackgroundImageFix" result="effect1_dropShadow_618_159"/><feBlend in="SourceGraphic" in2="effect1_dropShadow_618_159" result="shape"/></filter></defs></svg>