<svg width="364" height="392" viewBox="0 0 364 392" fill="none" xmlns="http://www.w3.org/2000/svg"><g filter="url(#filter0_d_618_157)"><path fill-rule="evenodd" clip-rule="evenodd" d="M149.305 10.139c43.036-2.438 78.378 27.68 111.356 55.438 37.431 31.507 77.227 63.377 86.803 111.357 11.515 57.699 10.162 125.114-31.271 166.888-41.508 41.85-108.713 42.387-166.888 32.902-49.295-8.037-91.92-38.454-120.098-79.692-23.698-34.681-20.358-78.28-16.419-120.098 3.449-36.609 13.808-70.964 37.097-99.42 26.36-32.205 57.87-65.022 99.42-67.375z" fill="url(#paint0_linear_618_157)"/></g><defs><linearGradient id="paint0_linear_618_157" x1="181.841" y1="10" x2="181.841" y2="381.726" gradientUnits="userSpaceOnUse"><stop stop-color="#EB00FF"/><stop offset="1" stop-color="#F9CE35"/></linearGradient><filter id="filter0_d_618_157" x="0" y="0" width="363.682" height="391.726" filterUnits="userSpaceOnUse" color-interpolation-filters="sRGB"><feFlood flood-opacity="0" result="BackgroundImageFix"/><feColorMatrix in="SourceAlpha" values="0 0 0 0 0 0 0 0 0 0 0 0 0 0 0 0 0 0 127 0" result="hardAlpha"/><feOffset/><feGaussianBlur stdDeviation="5"/><feComposite in2="hardAlpha" operator="out"/><feColorMatrix values="0 0 0 0 0.956863 0 0 0 0 0.964706 0 0 0 0 0.972549 0 0 0 1 0"/><feBlend in2="BackgroundImageFix" result="effect1_dropShadow_618_157"/><feBlend in="SourceGraphic" in2="effect1_dropShadow_618_157" result="shape"/></filter></defs></svg>