<svg width="60" height="70" viewBox="0 0 60 70" fill="none" xmlns="http://www.w3.org/2000/svg"><path d="M0 7c0-1.857.79-3.637 2.197-4.95C3.603.737 5.51 0 7.5 0h30c.995 0 1.948.37 2.651 1.026l18.75 17.5A3.386 3.386 0 0160 21v42c0 1.856-.79 3.637-2.197 4.95C56.397 69.263 54.49 70 52.5 70h-45c-1.99 0-3.897-.737-5.303-2.05C.79 66.637 0 64.856 0 63V7zm50.947 14L37.5 8.449V21h13.447zM30 7H7.5v56h45V28H33.75a3.89 3.89 0 01-2.652-1.025A3.386 3.386 0 0130 24.5V7zm13.901 29.026A3.385 3.385 0 0145 38.5c0 .928-.395 1.818-1.098 2.474l-15 14A3.89 3.89 0 0126.25 56a3.89 3.89 0 01-2.651-1.025l-7.5-7a3.506 3.506 0 01-.84-1.136 3.295 3.295 0 01-.025-2.707c.188-.43.466-.82.818-1.149a3.788 3.788 0 011.232-.764 3.986 3.986 0 012.9.023c.457.184.871.45 1.217.785l4.849 4.525 12.349-11.526a3.89 3.89 0 012.651-1.024 3.89 3.89 0 012.651 1.025z" fill="#fff"/></svg>