<svg width="518" height="419" viewBox="0 0 518 419" fill="none" xmlns="http://www.w3.org/2000/svg"><g filter="url(#filter0_d_1619_723)"><path fill-rule="evenodd" clip-rule="evenodd" d="M262.826 41.605c66.513 9.838 75.002 72.237 114.98 110.439 29.025 27.735 58.512 41.571 84.149 79.842 21.422 49.427 28.306 84.06-23.82 120.858-52.077 36.762-101.634 26.179-175.309 19.713-58.421-5.126-122.419 2.2-165.975-25.317-44.943-28.393-54.545-73.085-56.535-115.254-2.077-43.991 5.328-88.896 45.284-123.065 44.11-37.722 108.785-77.34 177.226-67.216z" fill="url(#paint0_linear_1619_723)"/></g><defs><linearGradient id="paint0_linear_1619_723" x1="40" y1="209.5" x2="478" y2="209.5" gradientUnits="userSpaceOnUse"><stop stop-color="#FFECD2"/><stop offset="1" stop-color="#FCB69F"/></linearGradient><filter id="filter0_d_1619_723" x="0" y="0" width="518" height="419" filterUnits="userSpaceOnUse" color-interpolation-filters="sRGB"><feFlood flood-opacity="0" result="BackgroundImageFix"/><feColorMatrix in="SourceAlpha" values="0 0 0 0 0 0 0 0 0 0 0 0 0 0 0 0 0 0 127 0" result="hardAlpha"/><feOffset/><feGaussianBlur stdDeviation="20"/><feComposite in2="hardAlpha" operator="out"/><feColorMatrix values="0 0 0 0 1 0 0 0 0 1 0 0 0 0 1 0 0 0 0.25 0"/><feBlend in2="BackgroundImageFix" result="effect1_dropShadow_1619_723"/><feBlend in="SourceGraphic" in2="effect1_dropShadow_1619_723" result="shape"/></filter></defs></svg>