<svg width="112" height="99" viewBox="0 0 112 99" fill="none" xmlns="http://www.w3.org/2000/svg"><path d="M6.016 25.885c-1.47 2.676-2.71 5.466-3.65 8.37-.575 1.419-.804 2.928-1.195 4.392-.413 1.44-.551 3.041-.78 4.597L.23 44.41l-.07.572-.022.526-.07 2.127-.045 1.052-.023.526v.731l.138 2.264.16 2.265c.092.754.23 1.486.368 2.24l.367 2.242c.115.755.368 1.464.551 2.196.988 5.328 2.894 10.588 5.833 15.3a47.4 47.4 0 0011.137 12.395 48.408 48.408 0 0014.926 7.89l4.134 1.098c1.4.32 2.916.503 4.386.731l1.102.16.964.07 1.93.114.964.045.482.023.253.023h.505l2.135-.091c11.39-.48 22.55-5.169 30.909-12.853a49.512 49.512 0 0010.38-13.38c1.354-2.515 2.433-5.076 3.352-7.843l.643-2.127.321-1.075c.092-.343.138-.64.207-.96l.413-1.876.207-.938.046-.228.092-.458.092-.526c.344-2.012-.299-5.214-.873-6.175-.551-.937-1.08-.777-1.538.023-.483.824-.942 2.287-1.47 4.002-1.883 5.626-4.363 11.413-8.13 16.604-3.742 5.191-8.496 9.925-14.144 13.379-6.706 4.3-14.651 6.358-22.527 6.289h-.253l-.344-.023-.804-.046-1.608-.114-1.607-.114c-.505-.069-.941-.16-1.4-.252-.92-.183-1.838-.32-2.756-.503l-2.825-.778c-3.697-1.212-7.325-2.721-10.54-4.94-3.215-2.172-6.246-4.642-8.726-7.638-2.48-2.95-4.73-6.152-6.269-9.72-1.561-3.567-2.801-7.272-3.307-11.114l-.252-1.441c-.07-.48-.07-.96-.115-1.441l-.092-1.464-.046-.732-.023-.365-.023-.183v-.16l.092-3.042c.023-.526 0-1.12.069-1.578l.184-1.372c.183-.915.252-1.784.528-2.722l.78-2.767c.23-.938.69-1.807.988-2.699l.528-1.349c.184-.457.437-.869.62-1.304a42.136 42.136 0 0111.183-14.179 42.228 42.228 0 0116.166-7.936c11.78-2.95 24.755-.434 34.698 6.793 3.582 2.538 6.498 5.283 8.542 6.54-4.386 4.597-8.749 9.263-13.135 13.86-6.912 5.145-13.273 10.977-19.473 17.038-5.051-5.009-10.15-9.995-15.018-15.186-.574-.617-2.066-.983-2.755-.87-1.378.207-1.286 1.625-.689 3.248 2.02 5.375 5.764 10.612 10.15 15.369l5.786 6.335a3.396 3.396 0 004.8.229l.23-.23c9.46-8.53 18.898-17.083 27.555-26.528l4.317-3.91c9.002-8.371 17.82-16.947 25.857-26.232 2.273-2.63 3.582-5.42 1.929-6.701-1.516-1.167-4.248-.435-6.935 1.92-4.845 4.232-9.736 8.486-14.283 13.037a677.023 677.023 0 00-5.672 5.808c-.16-.503-.39-1.029-.689-1.6-1.125-2.287-3.284-5.169-6.544-7.822C71.3 7.155 64.25 3.748 56.742 2.215l-2.801-.411-2.963-.32-2.663-.138h-.46l-.367.023-.712.023-1.447.046c-.964.068-1.928.023-2.87.183l-2.847.411-1.424.206-1.4.343-2.78.71C22.16 6.857 11.918 15.181 6.016 25.884z" fill="#F9CE35"/></svg> 73.1609 17.5837C76.7431 20.1222 79.6595 22.8666 81.7032 24.1245C77.3172 28.7213 72.9542 33.3867 68.5682 37.9835C61.6563 43.1292 55.2955 48.961 49.0954 55.0215C44.0435 50.013 38.9456 45.0274 34.0774 39.836C33.5034 39.2185 32.0107 38.8526 31.3218 38.9669C29.9441 39.1727 30.0359 40.5907 30.633 42.2144C32.6537 47.5888 36.3967 52.826 40.7827 57.5829L46.5694 63.9178C47.8324 65.3129 49.991 65.4043 51.3688 64.1465L51.5984 63.9178C61.0592 55.3874 70.4971 46.8341 79.1543 37.3889L83.4714 33.4782C92.4729 25.1079 101.291 16.5317 109.328 7.24658C111.601 4.61656 112.91 1.82645 111.257 0.545744C109.741 -0.620613 107.009 0.111218 104.322 2.4668C99.4767 6.6977 94.5856 10.9515 90.0388 15.5026C88.1329 17.4236 86.2499 19.3675 84.3669 21.3115C84.2062 20.8083 83.9765 20.2823 83.678 19.7106C82.5528 17.4236 80.3943 14.542 77.1335 11.8891C71.3008 7.1551 64.2511 3.74751 56.7421 2.21524L53.9406 1.80358L50.9784 1.4834L48.3146 1.34619H48.1539H48.062H47.8554L47.488 1.36905L46.7761 1.39192L45.3294 1.43766C44.365 1.50627 43.4005 1.46053 42.459 1.62062L39.6116 2.03228L38.1879 2.2381L36.7871 2.58115L34.0085 3.29011C22.1595 6.85779 11.9179 15.1824 6.01637 25.8854Z" fill="#F9CE35"/>
</svg>
