<svg width="318" height="67" viewBox="0 0 318 67" fill="none" xmlns="http://www.w3.org/2000/svg"><g filter="url(#filter0_f_1676_1047)"><path d="M7 7l1.347 4.146h4.36L9.18 13.708l1.347 4.146L7 15.292l-3.527 2.562 1.347-4.146-3.526-2.562h4.359L7 7z" fill="#fff"/></g><g filter="url(#filter1_f_1676_1047)"><path d="M29 37l1.347 4.146h4.36l-3.527 2.562 1.347 4.146L29 45.292l-3.527 2.562 1.347-4.146-3.526-2.562h4.359L29 37z" fill="#fff"/></g><g filter="url(#filter2_f_1676_1047)"><path d="M50 1l1.347 4.146h4.36L52.18 7.708l1.347 4.146L50 9.292l-3.527 2.562 1.347-4.146-3.526-2.562h4.359L50 1z" fill="#fff"/></g><g filter="url(#filter3_f_1676_1047)"><path d="M284 1l1.347 4.146h4.359l-3.526 2.562 1.347 4.146L284 9.292l-3.527 2.562 1.347-4.146-3.526-2.562h4.359L284 1z" fill="#fff"/></g><g filter="url(#filter4_f_1676_1047)"><path d="M311 55l1.347 4.146h4.359l-3.526 2.562 1.347 4.146L311 63.292l-3.527 2.562 1.347-4.146-3.526-2.562h4.359L311 55z" fill="#fff"/></g><g filter="url(#filter5_f_1676_1047)"><path d="M264 43l1.347 4.146h4.359l-3.526 2.562 1.347 4.146L264 51.292l-3.527 2.562 1.347-4.146-3.526-2.562h4.359L264 43z" fill="#fff"/></g><defs><filter id="filter0_f_1676_1047" x=".294" y="6" width="13.413" height="12.854" filterUnits="userSpaceOnUse" color-interpolation-filters="sRGB"><feFlood flood-opacity="0" result="BackgroundImageFix"/><feBlend in="SourceGraphic" in2="BackgroundImageFix" result="shape"/><feGaussianBlur stdDeviation=".5" result="effect1_foregroundBlur_1676_1047"/></filter><filter id="filter1_f_1676_1047" x="22.294" y="36" width="13.413" height="12.854" filterUnits="userSpaceOnUse" color-interpolation-filters="sRGB"><feFlood flood-opacity="0" result="BackgroundImageFix"/><feBlend in="SourceGraphic" in2="BackgroundImageFix" result="shape"/><feGaussianBlur stdDeviation=".5" result="effect1_foregroundBlur_1676_1047"/></filter><filter id="filter2_f_1676_1047" x="43.294" y="0" width="13.413" height="12.854" filterUnits="userSpaceOnUse" color-interpolation-filters="sRGB"><feFlood flood-opacity="0" result="BackgroundImageFix"/><feBlend in="SourceGraphic" in2="BackgroundImageFix" result="shape"/><feGaussianBlur stdDeviation=".5" result="effect1_foregroundBlur_1676_1047"/></filter><filter id="filter3_f_1676_1047" x="277.294" y="0" width="13.413" height="12.854" filterUnits="userSpaceOnUse" color-interpolation-filters="sRGB"><feFlood flood-opacity="0" result="BackgroundImageFix"/><feBlend in="SourceGraphic" in2="BackgroundImageFix" result="shape"/><feGaussianBlur stdDeviation=".5" result="effect1_foregroundBlur_1676_1047"/></filter><filter id="filter4_f_1676_1047" x="304.294" y="54" width="13.413" height="12.854" filterUnits="userSpaceOnUse" color-interpolation-filters="sRGB"><feFlood flood-opacity="0" result="BackgroundImageFix"/><feBlend in="SourceGraphic" in2="BackgroundImageFix" result="shape"/><feGaussianBlur stdDeviation=".5" result="effect1_foregroundBlur_1676_1047"/></filter><filter id="filter5_f_1676_1047" x="257.294" y="42" width="13.413" height="12.854" filterUnits="userSpaceOnUse" color-interpolation-filters="sRGB"><feFlood flood-opacity="0" result="BackgroundImageFix"/><feBlend in="SourceGraphic" in2="BackgroundImageFix" result="shape"/><feGaussianBlur stdDeviation=".5" result="effect1_foregroundBlur_1676_1047"/></filter></defs></svg>