<svg width="329" height="83" viewBox="0 0 329 83" fill="none" xmlns="http://www.w3.org/2000/svg"><g filter="url(#filter0_f_1676_1048)"><path d="M18 23l1.347 4.146h4.36l-3.527 2.562 1.347 4.146L18 31.292l-3.527 2.562 1.347-4.146-3.526-2.562h4.359L18 23z" fill="#fff"/></g><g filter="url(#filter1_f_1676_1048)"><path d="M40 53l1.347 4.146h4.36l-3.527 2.562 1.347 4.146L40 61.292l-3.527 2.562 1.347-4.146-3.526-2.562h4.359L40 53z" fill="#fff"/></g><g filter="url(#filter2_f_1676_1048)"><path d="M61 17l1.347 4.146h4.36l-3.527 2.562 1.347 4.146L61 25.292l-3.527 2.562 1.347-4.146-3.526-2.562h4.359L61 17z" fill="#fff"/></g><g filter="url(#filter3_f_1676_1048)"><path d="M295 17l1.347 4.146h4.359l-3.526 2.562 1.347 4.146L295 25.292l-3.527 2.562 1.347-4.146-3.526-2.562h4.359L295 17z" fill="#fff"/></g><g filter="url(#filter4_f_1676_1048)"><path d="M322 71l1.347 4.146h4.359l-3.526 2.562 1.347 4.146L322 79.292l-3.527 2.562 1.347-4.146-3.526-2.562h4.359L322 71z" fill="#fff"/></g><g filter="url(#filter5_f_1676_1048)"><path d="M275 59l1.347 4.146h4.359l-3.526 2.562 1.347 4.146L275 67.292l-3.527 2.562 1.347-4.146-3.526-2.562h4.359L275 59z" fill="#fff"/></g><g filter="url(#filter6_f_1676_1048)"><path d="M5 39l35.134 20.5" stroke="url(#paint0_linear_1676_1048)" stroke-width="2" stroke-linecap="round"/></g><g filter="url(#filter7_f_1676_1048)"><path d="M260 2l35.134 20.5" stroke="url(#paint1_linear_1676_1048)" stroke-width="2" stroke-linecap="round"/></g><defs><filter id="filter0_f_1676_1048" x="11.294" y="22" width="13.413" height="12.854" filterUnits="userSpaceOnUse" color-interpolation-filters="sRGB"><feFlood flood-opacity="0" result="BackgroundImageFix"/><feBlend in="SourceGraphic" in2="BackgroundImageFix" result="shape"/><feGaussianBlur stdDeviation=".5" result="effect1_foregroundBlur_1676_1048"/></filter><filter id="filter1_f_1676_1048" x="33.294" y="52" width="13.413" height="12.854" filterUnits="userSpaceOnUse" color-interpolation-filters="sRGB"><feFlood flood-opacity="0" result="BackgroundImageFix"/><feBlend in="SourceGraphic" in2="BackgroundImageFix" result="shape"/><feGaussianBlur stdDeviation=".5" result="effect1_foregroundBlur_1676_1048"/></filter><filter id="filter2_f_1676_1048" x="54.294" y="16" width="13.413" height="12.854" filterUnits="userSpaceOnUse" color-interpolation-filters="sRGB"><feFlood flood-opacity="0" result="BackgroundImageFix"/><feBlend in="SourceGraphic" in2="BackgroundImageFix" result="shape"/><feGaussianBlur stdDeviation=".5" result="effect1_foregroundBlur_1676_1048"/></filter><filter id="filter3_f_1676_1048" x="288.294" y="16" width="13.413" height="12.854" filterUnits="userSpaceOnUse" color-interpolation-filters="sRGB"><feFlood flood-opacity="0" result="BackgroundImageFix"/><feBlend in="SourceGraphic" in2="BackgroundImageFix" result="shape"/><feGaussianBlur stdDeviation=".5" result="effect1_foregroundBlur_1676_1048"/></filter><filter id="filter4_f_1676_1048" x="315.294" y="70" width="13.413" height="12.854" filterUnits="userSpaceOnUse" color-interpolation-filters="sRGB"><feFlood flood-opacity="0" result="BackgroundImageFix"/><feBlend in="SourceGraphic" in2="BackgroundImageFix" result="shape"/><feGaussianBlur stdDeviation=".5" result="effect1_foregroundBlur_1676_1048"/></filter><filter id="filter5_f_1676_1048" x="268.294" y="58" width="13.413" height="12.854" filterUnits="userSpaceOnUse" color-interpolation-filters="sRGB"><feFlood flood-opacity="0" result="BackgroundImageFix"/><feBlend in="SourceGraphic" in2="BackgroundImageFix" result="shape"/><feGaussianBlur stdDeviation=".5" result="effect1_foregroundBlur_1676_1048"/></filter><filter id="filter6_f_1676_1048" x="0" y="34" width="45.134" height="30.5" filterUnits="userSpaceOnUse" color-interpolation-filters="sRGB"><feFlood flood-opacity="0" result="BackgroundImageFix"/><feBlend in="SourceGraphic" in2="BackgroundImageFix" result="shape"/><feGaussianBlur stdDeviation="2" result="effect1_foregroundBlur_1676_1048"/></filter><filter id="filter7_f_1676_1048" x="255" y="-3" width="45.134" height="30.5" filterUnits="userSpaceOnUse" color-interpolation-filters="sRGB"><feFlood flood-opacity="0" result="BackgroundImageFix"/><feBlend in="SourceGraphic" in2="BackgroundImageFix" result="shape"/><feGaussianBlur stdDeviation="2" result="effect1_foregroundBlur_1676_1048"/></filter><linearGradient id="paint0_linear_1676_1048" x1="40.319" y1="59.184" x2="5.271" y2="39.567" gradientUnits="userSpaceOnUse"><stop stop-color="#F4F6F8"/><stop offset="1" stop-color="#F4F6F8" stop-opacity="0"/></linearGradient><linearGradient id="paint1_linear_1676_1048" x1="295.319" y1="22.184" x2="260.27" y2="2.567" gradientUnits="userSpaceOnUse"><stop stop-color="#F4F6F8"/><stop offset="1" stop-color="#F4F6F8" stop-opacity="0"/></linearGradient></defs></svg>